# xmcd CD database file
#
# Track frame offsets:
#	183
#	40295
#	49858
#	84970
#	133720
#	151483
#
# Disc length: 2336 seconds
#
# Revision: 2
# Processed by: cddbd v1.5.2PL0 Copyright (c) Steve Scherf et al.
# Submitted via: CDex 1.51
#
DISCID=46091e06
DTITLE=Gianluigi Trovesi - Dances
DYEAR=1985
DGENRE=Jazz
TTITLE0=Dance for a Small Bell
TTITLE1=Dance for a Fat Arlecchino
TTITLE2=Dance from the East #1
TTITLE3=Dance from the East #2
TTITLE4=Sciamano's Dance
TTITLE5=Sorry, I Can't Dance
EXTD=YEAR: 1985
EXTT0=
EXTT1=
EXTT2=
EXTT3=
EXTT4=
EXTT5=
PLAYORDER=
